<?xml version="1.0" standalone="no"?>
<!DOCTYPE svg PUBLIC "-//W3C//DTD SVG 20010904//EN"
 "http://www.w3.org/TR/2001/REC-SVG-20010904/DTD/svg10.dtd">
<svg version="1.0" xmlns="http://www.w3.org/2000/svg"
 width="100.000000pt" height="100.000000pt" viewBox="0 0 100.000000 100.000000"
 preserveAspectRatio="xMidYMid meet">

<g transform="translate(0.000000,100.000000) scale(0.100000,-0.100000)"
fill="#000000" stroke="none">
<path d="M418 911 c-144 -46 -260 -165 -302 -310 -64 -221 80 -467 313 -535
30 -9 67 -16 83 -16 25 0 28 3 28 34 0 33 2 34 47 41 130 19 221 84 275 193
31 63 33 73 33 172 0 99 -2 110 -33 172 -54 109 -145 174 -275 193 -45 7 -47
8 -47 41 0 32 -2 34 -32 33 -18 0 -59 -8 -90 -18z m122 -91 c0 -40 0 -40 38
-40 79 -1 174 -67 220 -154 23 -44 27 -63 27 -136 0 -73 -4 -92 -27 -136 -46
-87 -141 -153 -220 -154 -38 0 -38 0 -38 -41 l0 -41 -47 6 c-122 17 -249 119
-294 234 -30 78 -31 186 0 264 40 102 144 196 250 224 82 22 91 20 91 -26z"/>
<path d="M424 756 c-188 -88 -233 -326 -89 -471 45 -44 127 -85 173 -85 30 0
32 2 32 35 0 30 -3 35 -23 35 -37 0 -129 61 -161 107 -73 105 -30 245 95 308
27 14 57 25 69 25 16 0 20 6 20 35 0 33 -2 35 -32 35 -18 0 -56 -11 -84 -24z"/>
</g>
</svg>
