<?xml version="1.0" encoding="UTF-8"?>
<svg width="515px" height="193px" viewBox="0 0 515 193" version="1.1" xmlns="http://www.w3.org/2000/svg" xmlns:xlink="http://www.w3.org/1999/xlink">
    <title>Glueup-logo-main</title>
    <g id="Page-1" stroke="none" stroke-width="1" fill="none" fill-rule="evenodd">
        <g id="Glueup-logo-main">
            <g id="glueup-logo-en" transform="translate(174.799992, 57.199999)" fill="#202020" fill-rule="nonzero">
                <path d="M267.463678,22.7999986 C271.307415,22.7999986 274.748179,23.3891914 277.785971,24.567577 C280.823762,25.7459625 283.412085,27.4360155 285.550938,29.6377358 C287.689792,31.8394562 289.332679,34.5063288 290.479601,37.6383535 C291.626522,40.7703782 292.199983,44.2900298 292.199983,48.1973082 C292.199983,51.9185257 291.719516,55.3296418 290.758581,58.4306564 C289.797647,61.531671 288.418242,64.1985435 286.620365,66.431274 C284.822488,68.6640046 282.575142,70.4005727 279.878327,71.6409786 C277.181512,72.8813844 274.128221,73.5015873 270.718455,73.5015873 C268.424612,73.5015873 266.316757,73.222496 264.394889,72.6643134 C262.633176,72.152646 261.157979,71.5888643 259.969296,70.9729683 L259.652214,70.8037046 L259.652214,85.7999986 L248.399985,85.7999986 L248.399985,25.4048509 C250.693828,24.784648 253.514635,24.1954552 256.862405,23.6372726 C260.210176,23.07909 263.743933,22.7999986 267.463678,22.7999986 Z M201.440939,8.3999995 L201.440939,48.0025395 L201.44529,48.5863869 C201.485899,51.2846693 201.810774,53.6142058 202.419915,55.5749967 C203.072566,57.675844 204.004924,59.3847422 205.21699,60.7016913 C206.429055,62.0186404 207.858671,62.9906742 209.505838,63.6177928 C211.153004,64.2449114 213.002181,64.5584707 215.053369,64.5584707 C217.104557,64.5584707 218.969274,64.2449114 220.647519,63.6177928 C222.325764,62.9906742 223.770919,62.0186404 224.982985,60.7016913 C226.195051,59.3847422 227.127409,57.675844 227.78006,55.5749967 C228.43271,53.4741494 228.759036,50.949997 228.759036,48.0025395 L228.759036,48.0025395 L228.759036,8.3999995 L240.599989,8.3999995 L240.599989,49.131353 L240.593979,49.8331869 C240.533886,53.3239838 240.023089,56.5391915 239.061595,59.47881 C238.036,62.614403 236.48207,65.342369 234.399803,67.6627078 C232.317536,69.9830467 229.660315,71.7860127 226.42814,73.0716058 C223.195965,74.357199 219.373296,74.9999955 214.960133,74.9999955 C210.546971,74.9999955 206.755381,74.357199 203.585363,73.0716058 C200.415345,71.7860127 197.789202,69.9830467 195.706935,67.6627078 C193.624669,65.342369 192.086277,62.614403 191.091762,59.47881 C190.097246,56.343217 189.599989,52.8940646 189.599989,49.131353 L189.599989,49.131353 L189.599989,8.3999995 L201.440939,8.3999995 Z M153.949567,22.7999986 C160.630923,22.7999986 165.842999,24.8746798 169.585795,29.024042 C173.328591,33.1734042 175.19999,39.3664822 175.19999,47.6032759 C175.19999,48.2225836 175.184523,48.9193049 175.153591,49.6934397 C175.128845,50.3127475 175.094201,50.8825106 175.049659,51.4027292 L175.014396,51.7836035 L142.999568,51.7836035 L143.036793,52.1982593 C143.408571,55.8997687 144.772646,58.7806757 147.129017,60.84098 C149.572661,62.9775919 153.114398,64.0458978 157.754228,64.0458978 C160.476262,64.0458978 162.966304,63.7981747 165.224355,63.3027285 C167.331869,62.840312 169.021729,62.3509212 170.293936,61.8345561 L170.560159,61.7234936 L172.044905,70.9202144 L171.830098,71.0240058 C171.234367,71.302312 170.455334,71.5928514 169.492998,71.8956241 C168.410371,72.2362434 167.173083,72.5458973 165.781134,72.8245858 C164.389185,73.1032743 162.888973,73.3355148 161.280499,73.5213071 C159.672024,73.7070994 158.032618,73.7999986 156.362279,73.7999986 C152.093635,73.7999986 148.381771,73.1652051 145.226686,71.8956241 C142.071602,70.6260431 139.473297,68.8610159 137.431771,66.6005425 C135.390246,64.340069 133.874568,61.6770455 132.884738,58.6114719 C131.894907,55.5458983 131.399992,52.1861535 131.399992,48.5322375 C131.399992,44.2590138 132.034102,40.5122016 133.302323,37.2918011 C134.570543,34.0714005 136.256348,31.3928943 138.359738,29.2562824 C140.463127,27.1196705 142.875839,25.5094702 145.597873,24.4256816 C148.319906,23.341893 151.103805,22.7999986 153.949567,22.7999986 Z M30.9599982,5.99999964 C33.8824759,5.99999964 36.4853076,6.20138276 38.7684933,6.60414898 C41.051679,7.00691521 43.0152187,7.45615447 44.6591124,7.95186675 C46.3030061,8.44757903 47.6576963,8.97427332 48.7231829,9.53194964 C49.7886696,10.089626 50.5345103,10.4923922 50.9607049,10.7402483 L50.9607049,10.7402483 L47.4902627,20.3136917 C45.6637141,19.1983391 43.3957496,18.2533876 40.6863693,17.4788371 C37.9769889,16.7042867 35.1306174,16.3170115 32.1472547,16.3170115 C25.6325648,16.3170115 20.65522,18.3773156 17.2152202,22.497924 C13.7752204,26.6185323 12.0552205,32.3347145 12.0552205,39.6464707 C12.0552205,43.1164566 12.4661939,46.2921134 13.2881408,49.1734411 C14.1100877,52.0547687 15.3277867,54.5178391 16.9412379,56.5626522 C18.5546892,58.6074654 20.5638926,60.2030393 22.9688482,61.3493739 C25.3738038,62.4957086 28.1897328,63.0688759 31.4166353,63.0688759 C33.4258387,63.0688759 35.1610599,62.9914209 36.6222987,62.8365108 C38.0835376,62.6816007 39.2403516,62.4802176 40.092741,62.2323614 L40.092741,62.2323614 L40.092741,43.2887941 C40.092741,40.9691983 41.9731449,39.0887944 44.2927407,39.0887944 L44.2927407,39.0887944 L51.5999969,39.0887944 L51.5999969,70.0398299 C50.0169882,70.6594702 47.3380503,71.3410746 43.5631832,72.084643 C39.7883162,72.8282114 35.4350421,73.1999956 30.503361,73.1999956 C25.9369896,73.1999956 21.7663704,72.4564272 17.9915034,70.9692904 C14.2166363,69.4821535 11.0049551,67.3134123 8.35645968,64.4630667 C5.70796426,61.6127211 3.65309713,58.1117531 2.19185828,53.9601628 C0.730619425,49.8085724 0,45.0373417 0,39.6464707 C0,34.2555996 0.806725616,29.4843689 2.42017685,25.3327786 C4.03362808,21.1811882 6.24070759,17.6647292 9.04141539,14.7834016 C11.8421232,11.902074 15.1299106,9.71784174 18.9047776,8.2307049 C22.6796447,6.74356806 26.6980515,5.99999964 30.9599982,5.99999964 Z M72.3970106,0 L72.3970106,55.7847295 C72.3970106,57.1506327 72.5049708,58.2992332 72.7208912,59.2305308 C72.9368116,60.1618285 73.3223837,60.9534315 73.8776075,61.6053398 C74.4328314,62.2572482 75.1885527,62.7539403 76.1447716,63.0954161 C77.1009904,63.4368919 78.3193983,63.7007596 79.7999952,63.8870191 L79.7999952,63.8870191 L78.226861,73.1999956 C74.8955179,73.1379091 72.1348216,72.7653901 69.944772,72.0824385 C67.7547223,71.3994868 66.0119364,70.4216243 64.7164141,69.1488508 C63.4208917,67.8760774 62.5109415,66.2928714 61.9865635,64.3992328 C61.4621854,62.5055942 61.1999964,60.348088 61.1999964,57.9267141 L61.1999964,57.9267141 L61.1999964,1.86259531 L72.3970106,0 Z M95.9489598,23.3999986 L95.9489598,48.5977541 L95.9515131,49.1078401 C96.000876,53.9912591 96.7660019,57.4997349 98.2468907,59.6332675 C99.7788446,61.8403701 102.451948,62.9439215 106.266201,62.9439215 C107.641833,62.9439215 109.095626,62.8826131 110.62758,62.7599963 C112.159534,62.6373794 113.300683,62.4841084 114.051028,62.3001832 L114.051028,62.3001832 L114.051028,23.3999986 L125.399993,23.3999986 L125.399993,70.0250426 L125.00697,70.1225738 C122.874502,70.6435892 120.160453,71.1781816 116.864821,71.7263509 C113.363212,72.3087807 109.517695,72.5999957 105.32827,72.5999957 C101.388959,72.5999957 98.0905689,72.04822 95.4330978,70.9446687 C92.7756267,69.8411173 90.6496498,68.3084071 89.0551671,66.3465381 C87.4606844,64.3846691 86.3195351,62.0396225 85.631719,59.3113983 C84.943903,56.5831742 84.599995,53.5943893 84.599995,50.3450437 L84.599995,50.3450437 L84.599995,23.3999986 L95.9489598,23.3999986 Z M266.347755,32.4751642 C265.293827,32.4751642 264.193403,32.5216794 263.046481,32.6147098 C262.090713,32.6922352 261.145709,32.8451325 260.211467,33.0734016 L259.652214,33.2194077 L259.652214,61.0355086 C260.644146,61.7177319 261.961556,62.3534399 263.604443,62.9426326 C265.24733,63.5318254 266.99871,63.8264218 268.858583,63.8264218 C272.950302,63.8264218 275.941597,62.4309652 277.832468,59.6400521 C279.723338,56.8491389 280.668773,53.0969113 280.668773,48.3833691 C280.668773,43.3597254 279.537351,39.452447 277.274506,36.6615339 C275.011661,33.8706208 271.369411,32.4751642 266.347755,32.4751642 Z M154.042364,32.1825117 C152.31016,32.1825117 150.794483,32.5076483 149.49533,33.1579215 C148.196178,33.8081947 147.098084,34.6597429 146.201051,35.7125662 C145.304017,36.7653894 144.608042,37.9730396 144.113127,39.3355168 C143.680076,40.5276843 143.365438,41.7435597 143.169212,42.9831429 L143.092364,43.5158444 L163.9716,43.5158444 C163.9716,41.9675749 163.755075,40.4967189 163.322024,39.1032764 C162.888973,37.7098338 162.254863,36.5021836 161.419694,35.4803258 C160.584524,34.4584679 159.563762,33.6533678 158.357406,33.0650254 C157.15105,32.4766829 155.712703,32.1825117 154.042364,32.1825117 Z" id="Combined-Shape"></path>
            </g>
            <rect id="Rectangle" x="0" y="0" width="515" height="193"></rect>
            <g id="glueup-symbol" transform="translate(47.000000, 47.000000)" fill-rule="nonzero">
                <path d="M53.3004599,0 C40.3220248,0 29.8009243,10.5620907 29.8009243,23.59109 C29.8009243,24.9208284 29.9105539,26.2372681 30.1269819,27.5314259 L30.1681958,27.7670952 L30.1967627,27.9184008 C30.414958,29.1886345 30.5261537,30.4897227 30.5261537,31.8051689 L30.5243687,32.0923708 C30.4078461,41.4629768 24.5966905,49.7110087 16.0253613,53.0304587 L15.8627221,53.0916257 C6.44883227,56.3374429 0,65.2549336 0,75.4089041 C0,88.4379034 10.5211004,99 23.4995356,99 C36.4779707,99 46.9990711,88.4379034 46.9990711,75.4089041 C46.9990711,73.9142561 46.8605624,72.4368681 46.587638,70.9897021 C46.3798497,69.749953 46.2738417,68.4792202 46.2738417,67.1948252 C46.2738417,57.6566777 52.1766216,49.2326853 60.9172361,45.9150397 C70.3351574,42.6837694 76.7999954,33.7576911 76.7999954,23.59109 C76.7999954,10.5620907 66.278895,0 53.3004599,0 Z" id="Path" fill="#001D71"></path>
                <path d="M83.999995,51.5999969 C71.0765326,51.5999969 60.5999964,62.0765332 60.5999964,74.9999955 C60.5999964,87.9234579 71.0765326,98.3999941 83.999995,98.3999941 C96.9234574,98.3999941 107.399994,87.9234579 107.399994,74.9999955 C107.399994,62.0765332 96.9234574,51.5999969 83.999995,51.5999969 Z" id="Path" fill="#0064FF"></path>
            </g>
        </g>
    </g>
</svg>